<?xml version="1.0" encoding="utf-8"?>
<!-- Generator: Adobe Illustrator 13.0.0, SVG Export Plug-In . SVG Version: 6.00 Build 14948)  -->
<!DOCTYPE svg [
	<!ENTITY ns_flows "http://ns.adobe.com/Flows/1.0/">
	<!ENTITY ns_extend "http://ns.adobe.com/Extensibility/1.0/">
	<!ENTITY ns_ai "http://ns.adobe.com/AdobeIllustrator/10.0/">
	<!ENTITY ns_graphs "http://ns.adobe.com/Graphs/1.0/">
]>
<svg version="1.2" baseProfile="tiny" id="Layer_1" xmlns:x="&ns_extend;" xmlns:i="&ns_ai;" xmlns:graph="&ns_graphs;"
	 xmlns="http://www.w3.org/2000/svg" xmlns:xlink="http://www.w3.org/1999/xlink" xmlns:a="http://ns.adobe.com/AdobeSVGViewerExtensions/3.0/"
	 x="0px" y="0px" width="303.649px" height="282.512px" viewBox="0 0 303.649 282.512" xml:space="preserve">
<g>
	<path fill="#8ECDA4" d="M137.719,282.512c-1.669,0-3.41-0.226-5.179-0.669c-8.352-1.943-13.706-7.687-17.131-14.478
		c-1.826,3.359-5.238,5.605-9.379,6.101c-0.819,0.098-1.695,0.148-2.603,0.148c-9.322,0-23.177-5.006-34.101-19.054
		c-4.772-6.136-6.465-12.454-6.395-18.29c-2.15,0.551-4.128,0.732-5.808,0.732c-0.002,0-0.004,0-0.006,0
		c-6.608,0-13.503-2.68-20.493-7.963l-0.35-0.264l-0.325-0.293c-39.671-35.85-37.402-86.212-34.584-106.201
		c1.044-7.404,5.008-14.176,10.348-17.673c2.366-1.549,4.795-2.796,7.241-3.719c-0.325-0.271-0.629-0.544-0.91-0.815
		c-4.983-4.808-6.336-11.973-3.712-19.661c1.906-5.599,7.834-13.301,11.198-17.393C36.303,49.92,45.979,41.02,54.293,36.569
		c2.678-1.436,5.146-2.379,7.458-2.847c2.727-5.698,8.803-11.222,18.199-16.517c4.191-2.361,8.625-3.611,12.823-3.611
		c3.088,0,5.975,0.669,8.474,1.906c0.641-1.615,1.697-3.355,3.402-5.059c5.306-5.308,13.091-7.758,16.831-8.934
		c0.171-0.055,0.329-0.104,0.473-0.147C123.543,0.589,125.777,0,129.025,0c5.475,0,10.333,1.834,13.777,5.181
		c4.122-2.545,10.104-4.375,18.782-4.375c2.247,0,3.828,0.133,4.227,0.171c17.532,1.351,31.064,4.77,40.239,10.164
		c6.06,3.394,8.97,7.218,10.284,10.58c2.683-2.286,5.996-3.62,9.62-3.62c9.172,0,16.358,8.548,16.358,19.459
		c0,1.034-0.065,2.047-0.19,3.035c1.1-0.209,2.139-0.29,3.077-0.29c1.07,0,1.995,0.112,2.752,0.26
		c9.169,1.136,15.019,5.686,17.745,13.841c0.159-0.006,0.314-0.008,0.471-0.008c8.01,0,12.492,7.469,13.966,9.923
		c1.897,3.166,2.897,6.323,3.286,9.303c3.33,1.682,5.485,4.419,6.396,5.574c4.196,5.329,3.818,11.321,2.484,16.061
		c5.289,1.866,8.036,5.285,9.423,7.908c3.246,6.135,1.492,12.393,1.106,13.585l-0.055,0.171l-0.06,0.167
		c-1.144,3.151-2.936,5.774-5.327,7.798c-0.021,0.017-0.044,0.036-0.067,0.055c0.821,4.544,0.067,8.737-0.46,11.665
		c-1.439,8.03-5.278,12.986-9.66,15.688c0.239,0.304,0.478,0.61,0.714,0.923l0.255,0.337l0.229,0.357
		c7.592,11.931,2.821,21.261-1.079,24.893c-1.057,1.007-3.756,3.235-7.53,3.945c1.112,7.038,1.33,17.271-4.425,24.747
		c-2.824,3.668-8.153,8.041-17.512,8.041c-0.286,0-0.58-0.004-0.875-0.013c-0.476-0.006-0.948-0.031-1.414-0.078
		c-0.91,1.243-1.965,2.335-3.16,3.266c0.187,3.868-0.747,7.311-1.354,9.554c-2.352,8.675-7.638,13.06-12.906,14.628
		c-0.213,3.103-1.057,6.089-2.891,8.681c-2.563,3.626-6.701,5.791-11.07,5.791c-0.042,0-0.084,0-0.126,0
		c-0.127,0.002-0.267,0.005-0.418,0.005c-0.83,0-2.083-0.065-3.577-0.355c-0.089,0.163-0.18,0.325-0.272,0.486
		c-3.55,6.135-11.074,8.929-16.562,8.929c-1.916,0-3.714-0.316-5.362-0.938c-0.865,1.542-1.897,2.741-2.843,3.634
		c-2.854,2.685-6.939,4.286-10.935,4.286c-1.803,0-4.051-0.295-6.391-1.329c-2.145,3.128-5.167,5.483-8.763,6.618
		c-2.588,0.819-5.676,1.269-8.691,1.269c-4.046,0-7.617-0.827-10.493-2.41C146.594,280.763,142.362,282.512,137.719,282.512
		L137.719,282.512z M42.155,154.086c0.357,1.12,0.745,2.254,1.167,3.394c0.093-0.142,0.186-0.298,0.277-0.473
		C43.451,156.262,42.911,155.238,42.155,154.086L42.155,154.086z"/>
	<path fill="#717DBC" d="M32.592,93.992c1.96-2.677,1.53-6.549,4.578-8.509c8.721-5.605,3.214,12.894,3.214,16.523
		c0,10.05,5.945,6.047,5.945,6.047s4.088-4.025,15.508-15.445s1.461-18.82-3.289-21.744s-3.289-10.415,3.289-13.338
		s11.694-19.917-2.824-12.142c-9.086,4.866-19.351,16.193-25.76,23.987c-3.831,4.659-8.299,10.863-9.46,14.271
		c-1.048,3.075-1.346,6.787,1.19,9.235C26.708,94.543,30.72,96.549,32.592,93.992z M78.83,68.308
		c0.949,8.266,8.414,7.556,13.856,3.628c2.866-2.068,6.591-2.767,9.418-4.917c4.038-3.07,2.102-8.227,0.114-12.05
		c-2.375-4.568-1.462-9.318,4.385-11.329s6.578,3.654,6.578,3.654s-0.366,14.982,10.323,10.323s13.247-5.573,13.247-5.573
		s8.463-2.56,3.106-12.059c-4.565-8.096-2.313-12.841-1.827-20.647c0.692-11.107-11.244-9.457-11.757-8.945
		s-9.804,2.367-14.555,7.118c-2.375,2.375-1.324,4.157,0.32,5.345c1.644,1.188,5.667,4.208,4.373,7.054
		c-0.776,1.708-2.661,3.566-6.703,5.142c-10.78,4.203-14.617,4.02-10.78-2.558s-4.02-12.242-14.069-6.578
		S68.092,37.593,70.79,43.641C70.79,43.641,77.55,57.162,78.83,68.308z M163.794,50.949c6.574,0.541,16.033,0.415,24.768-0.333
		c3.783-0.324,13.37,1.146,16.588,0.593c4.428-0.762,7.248-4.462,6.699-10.492c-0.73-3.472-5.298-6.396-16.81-3.289
		s-14.618,3.289-14.618,3.289s-4.385,1.096-5.847-1.462s3.654-2.741,3.654-2.741s8.771,1.097,8.953-2.741s-5.664-3.654-5.664-3.654
		s-4.567,0.365-4.202-2.193s2.375-8.04,17.906-0.731c12.425,6.396,16.81-1.279,5.877-7.365c-6.257-3.714-17.174-7.445-36.208-8.896
		c0,0-20.099-1.954-21.195,9.375c-0.563,5.82,0.409,12.011,1.488,16.655C146.204,41.36,150.455,49.853,163.794,50.949z
		 M74.472,161.676c-2.548-8.944-18.663-44.58-18.663-44.58s-2.559-9.684-9.136-5.116s-9.501,7.126-9.501,7.126
		s-5.664,4.751-0.183,12.791s20.099,19.551,15.896,28.87s-14.843,10.757-18.455,1.462c-9.943-25.59-4.568-47.142-4.568-47.142
		s0.548-7.31-6.03-5.299c-2.544,0.777-4.814,1.992-6.643,3.189c-2.899,1.898-5.304,6.299-5.924,10.702
		c-2.471,17.536-4.979,64.523,31.388,97.383c20.821,15.741,30.63-3.239,34.786-17.08C80.189,189.299,78.136,174.539,74.472,161.676z
		 M59.828,109.97c0,0,19.368,32.89,25.763,66.692c4.934,24.118,14.618,17.175,14.618,17.175s14.617-6.396,1.827-29.966
		s-16.627-30.696-16.627-30.696s14.928,14.57,23.254,26.041c4.382,6.036,10.901,22.753,20.416,13.243
		c3.305-3.303,1.67-10.026,0.353-13.791c-2.121-6.06-6.17-11.271-9.742-16.523c-7.285-10.714-11.973-22.843-16.22-35.025
		c-1.592-4.566-3.103-9.16-4.539-13.777c0,0-2.011-15.713-9.868-14.251s-12.608,6.944-5.665,17.358
		c11.329,14.8,19.551,42.025,19.551,42.025s-16.262-11.146-23.388-24.301S72.983,89.14,65.857,94.439
		C59.645,99.555,55.626,102.478,59.828,109.97z M134.092,122.417c-2.66,0.319-4.223-1.938-5.445-3.943
		c-2.23-3.659-3.175-7.746-8.339-6.312c-3.289,0.914-8.587,5.298,3.655,30.148c12.242,24.851,21.013,25.764,28.869,20.465
		c0,0,16.628-9.135,4.934-34.898c-3.289-7.247-6.963-15.033-13.359-20.067c-4.87-3.833-10.647-6.303-15.409-10.323
		c-3.383-2.856-10.273-7.019-7.318-12.467c0.279-0.515,0.598-0.917,0.941-1.22c2.306-2.033,5.768,0.398,6.458,3.331
		c4.203,10.598,10.25,1.81,11.32-2.133c0.748-2.753,1.028-6.439-0.174-11.022c0,0-5.481-18.271-23.753-12.242
		c-6.413,2.494-10.572,7.754-11.552,14.418c-1.029,7.006-0.042,15.15,4.767,20.742c4.657,5.416,11.821,8.684,18.304,11.308
		c3.691,1.494,12.257,3.774,11.161,9.236C138.691,119.729,136.475,122.131,134.092,122.417z M288.405,104.507
		c-2.606-0.619-5.103,0.149-6.889,2.067c-1.88,2.019-3.364,4.848-3.059,7.703c0.295,2.765,1.87,5.396,3.368,7.67
		c0.853,1.295,3.094,3.92,1.536,5.428c-0.656,0.633-1.896,0.913-2.724,0.479c-0.924-0.486-0.926-1.555-0.875-2.467
		c0.095-1.667,0.696-3.185-1.276-3.867c-1.257-0.434-3.923-0.2-5.492,10.472c-1.57,10.672,1.04,12.903,4.73,12.941
		c0,0,7.348,0.748,9.294-10.096c0.55-3.051,1.092-6.358,0.154-9.386c-0.713-2.305-2.019-4.374-2.656-6.715
		c-0.454-1.663-1.743-4.521,0.409-5.614c0.203-0.103,0.394-0.162,0.571-0.183c1.188-0.142,1.762,1.403,1.335,2.495
		c-0.996,4.327,2.885,2.846,4.099,1.818c0.849-0.717,1.753-1.836,2.383-3.571C293.314,113.682,295.595,106.613,288.405,104.507z
		 M244.818,199.99c-2.168-0.718-4.346-0.251-6.005,1.247c-1.746,1.573-3.214,3.864-3.167,6.313c0.047,2.371,1.188,4.723,2.294,6.765
		c0.628,1.163,2.336,3.558,0.902,4.723c-0.605,0.491-1.678,0.638-2.349,0.208c-0.748-0.482-0.672-1.392-0.563-2.163
		c0.207-1.407,0.829-2.653-0.797-3.378c-1.034-0.462-3.317-0.46-5.438,8.487c-2.125,8.947-0.074,11.037,3.058,11.341
		c0,0,6.186,1.181,8.642-7.885c0.693-2.551,1.398-5.319,0.826-7.961c-0.434-2.011-1.39-3.864-1.761-5.9
		c-0.261-1.444-1.145-3.967,0.766-4.738c0.18-0.071,0.346-0.106,0.497-0.111c1.021-0.033,1.394,1.32,0.95,2.218
		c-1.167,3.6,2.238,2.631,3.347,1.847c0.772-0.546,1.624-1.429,2.288-2.856C248.31,208.146,250.769,202.312,244.818,199.99z
		 M143.513,71.599c6.213,11.876,20.83,58.288,20.83,58.288s2.375,25.032,20.099,16.079c6.646-3.357,9.875-6.252,11.527-8.955
		c9.101-10.871,4.501-27.62-2.912-20.494c-4.412,4.416-3.682,8.801-9.711,10.812c-9.318,2.558-19.186-23.936-13.887-23.388
		c6.213,1.827,2.923-8.222,2.375-12.607s-3.654-4.203-6.761-1.462s-3.289-1.461-3.289-1.461l-3.105-10.415
		c0,0-1.097-4.751,5.481-4.934s6.029-8.953,6.029-8.953s-0.913-7.674-9.136-7.857s-12.974,1.462-12.974,1.462
		C145.156,58.444,137.3,59.723,143.513,71.599z M220.255,132.627c6.029-3.106,10.049-10.963,6.212-20.464s-9.318-5.116-9.501,3.106
		c-0.548,7.674-8.04-5.664-8.771-15.531c0,0-0.914-14.983-12.06-13.156c18.638-15.531,7.856-33.986-13.521-32.89
		c0,0-11.328,0.548-7.856,8.771c0,0,8.039,33.255,9.318,44.401c0.731,8.405,7.492,4.568,7.492,4.568s5.481-0.731,2.01-10.415
		s6.943,0,10.598,11.146S214.226,135.733,220.255,132.627z M188.097,80.187l-1.827-7.674c5.116-2.558,8.222-0.548,8.953,3.106
		S188.097,80.187,188.097,80.187z M216.756,97.462c1.308,2.024,3.388,3.203,5.824,2.015c3.672-1.791,3.001-8.393,3.098-11.75
		c0.181-6.284,0.717-12.546,1.135-18.818c0.33-4.951,1.528-11.247,0.051-16.111c-0.75-2.465-2.551-3.531-4.487-3.49
		c-1.877,0.04-3.881,1.119-5.178,2.972c-4.554,6.503-3.35,17.019-3.404,24.483C213.749,82.949,213.22,91.986,216.756,97.462z
		 M225.954,47.023c3.512,0,6.359-4.236,6.359-9.461c0-5.225-2.848-9.461-6.359-9.461s-6.359,4.236-6.359,9.461
		C219.595,42.787,222.442,47.023,225.954,47.023z M202.423,155.947c2.941,0,5.326-3.547,5.326-7.924
		c0-4.376-2.385-7.924-5.326-7.924s-5.326,3.548-5.326,7.924C197.097,152.4,199.481,155.947,202.423,155.947z M234.176,118.678
		c0,0,4.032,9.927,9.926,8.375s10.236-29.779,10.236-29.779s4.033-26.987,2.792-35.672s-4.964-10.546-10.857-11.167
		c0,0-10.546-3.412-14.269,24.815S234.176,118.678,234.176,118.678z M248.363,61.588c0.354-0.015,0.659,0.055,0.923,0.195
		c2.208,1.169,1.525,5.589,1.302,7.517c-0.347,2.988-1.136,6.56-3.779,8.383c-1.996,1.376-3.339,0.205-3.685-2.039
		C242.619,72.37,243.233,61.8,248.363,61.588z M262.96,134.029c6.5,0,10.25-16.75,10.25-16.75s4.25-12.75,7.5-19.75
		s2.927-10.015,1.253-12.14c-3.87-4.913-6.192-3.654-7.442,0.596s-0.306,20.126-5.806,22.626c-10.25-1.75,3.126-25.157,3.126-25.157
		s4.217-6.487-0.283-13.987s-7.5-5.75-8.5-0.75c0,0-6.848,40.062-7.598,49.812S256.46,134.029,262.96,134.029z M138.804,247.3
		c-4.479,1.493-4.665,8.212-4.665,8.212s-2.613,2.239-8.025-49.642c0,0-0.372-21.275-9.517-15.677
		c-9.145,5.599-9.331,8.958-10.078,15.864c-0.483,4.467,0.377,9.71-0.657,14.021c-1.209,10.425-8.043-3.347-9.887-5.879
		c-2.288-3.142-6.088-5.357-11.63,0.489c-1.627,1.717-3.493,3.96-5.633,6.856c0,0-11.943,13.438-1.493,26.874
		s22.955,15.676,27.62,15.116s-0.374-6.531-0.374-6.531s-5.972-5.785-2.426-14.184c2.613-5.599,5.225,1.866,5.225,1.866
		s2.24,4.292,4.106,3.919s2.053-5.972,2.053-5.972s-0.747-10.265,3.732-10.824c2.613,0.187,2.239,4.853,2.239,4.853
		s-0.933,31.726,15.49,35.458c13.81,3.546,10.824-18.289,10.824-18.289S144.402,246.366,138.804,247.3z M132.21,178.529
		c-7.5,3.75-2.75,24.75-1.25,31s5.5,28.5,5.5,28.5s0.25,4.75,5.75,3.75c8,0,1.75-12.75,1.75-12.75
		c-0.854-3.705,1.338-5.902,3.656-6.216s3.155,20.016,3.228,29.201c0.061,7.654,0.766,14.448,2.91,16.235
		c2.771,2.309,8.894,1.951,12.167,0.918c3.623-1.145,5.26-5.174,5.28-8.724c0.075-13.378-3.761-22.506-7.491-35.165
		C147.21,173.529,139.71,174.779,132.21,178.529z M146.877,207.113c-3.333,1.334-6.333,6.666-6.333,6.666
		s-5.667-15.333-1.667-17.333S150.21,205.779,146.877,207.113z M189.797,170.222c0,0-0.918-18.218-8.035-15.463
		s-9.412,7.387-5.969,13.355s11.479,31.264,13.086,43.431c0.868,6.572-4.47-3.869-9.563-14.861c-2.262-4.882-4.263-9.9-6.124-14.947
		c-1.735-4.71-2.925-9.79-5.772-13.997c-4.549-6.72-11.012-2.024-16.101,1.74c-2.399,1.773-2.607,6.58-0.091,11.991
		c0,0,20.431,50.736,23.646,68.184s11.307,14.061,13.287,12.195s2.898-5.653-1.349-13.344c0,0-9.872-21.579-12.397-29.385
		s19.514,21.81,21.58,30.304c0.908,3.732,3.058,5.647,5.182,6.621c2.71,1.242,8.289-0.67,9.957-3.551
		c1.403-2.426,1.928-5.741-0.905-9.729C210.229,242.767,199.898,228.533,189.797,170.222z M198.062,183.308
		c1.347,9.633,2.301,19.499,4.293,25.866c2.424,7.746,9.021,12.013,5.89-25.178c-0.311-5.818-0.586-11.637-0.792-17.463
		c-0.098-2.757-1.742-6.826-5.255-6.768C193.94,159.925,197.343,179.156,198.062,183.308z M238.466,196.934
		c2.525,0.229,3.903-2.066,5.051-5.28c0,0,2.296-7.117-8.035-5.28c-6.428,1.147-9.871,6.657-9.871,6.657s-4.761,5.959-5.667-6.941
		c-0.108-1.545-1.543-20.41,0.846-26.657c0,0,5.051-13.773,14.463-8.494c4.592,3.443,8.723-0.689,9.412-3.674
		s-1.377-13.085-11.708-11.708s-22.958,12.168-22.039,29.386c0,0,3.444,43.619,2.066,63.592s11.02,18.825,11.02,18.825
		s8.266,0.918,1.607-17.907S228.135,196.704,238.466,196.934z M250.251,160.255c-0.676-1.393-2.623-1.915-4.017-2.158
		c0,0-18.33-4.405-20.854,5.696s-1.377,13.545-1.377,13.545s0.918,8.725,8.265,6.658s13.086-3.444,13.086-3.444
		s5.51-1.377,3.443-5.969s-8.035-0.229-8.035-0.229s-2.065,0.918-6.198,0.688s-2.524-2.984-0.688-2.984l4.712,0.116
		c0,0,3.389,0.434,3.649-1.738s-3.476-2.433-3.476-2.433l-2.867,0.087c0,0-1.825-0.175-0.869-1.999s1.824-2.259,3.563-2.259
		c2.091,0,4.141-0.092,6.231,0.058c1.785,0.127,4.034,0.196,5.191-1.447C250.455,161.811,250.597,160.966,250.251,160.255z
		 M256.71,141.779c-2-0.5-8.25-1-9.5,4.25c-0.658,2.764,0.9,5.665,2.707,7.539c2.793,3.711,10.043-0.789,10.043,4.711
		s-2.5,13.75-6.75,23.75s-4.25,23.5,4,23.5c15.75,0.5,14-17.25,11.75-25.75s-2.5-17.5-1.5-18.25s4.75-0.75,6.5,7s6.5,3,6.5,3
		s4.75-4-0.5-12.25C267.96,143.529,256.71,141.779,256.71,141.779z"/>
	<path fill="#F06686" d="M201.923,140.424c-0.477-0.208-0.979-0.324-1.5-0.324c-2.941,0-5.326,3.548-5.326,7.924
		c0,4.377,2.385,7.924,5.326,7.924c0.521,0,1.023-0.116,1.5-0.324c-2.211-0.964-3.826-3.998-3.826-7.6
		C198.097,144.423,199.712,141.388,201.923,140.424z M199.062,183.308c-0.672-3.88-3.685-20.924,2.662-23.271
		c-0.465-0.177-0.97-0.281-1.526-0.271c-8.257,0.159-4.854,19.391-4.136,23.542c1.347,9.633,2.301,19.499,4.293,25.866
		c1.221,3.899,3.498,6.915,5.06,4.205c-0.79-0.963-1.525-2.499-2.06-4.205C201.362,202.807,200.408,192.94,199.062,183.308z
		 M214.966,115.269c-0.02,0.269-0.049,0.505-0.084,0.723c1.551,2.051,2.866,2.327,3.084-0.723c0.086-3.883,1.354-6.907,3.073-8.021
		C217.994,105.396,215.098,109.33,214.966,115.269z M166.073,89.871c0.789-0.696,1.577-1.225,2.324-1.558
		c-1.311-0.9-3.299-0.217-5.295,1.534C163.479,90.735,164.298,91.438,166.073,89.871z M108.309,43.443
		c2.474,0.854,2.872,3.852,2.872,3.852s-0.308,12.862,8.159,11.032c-5.388-1.442-5.159-11.032-5.159-11.032
		S113.498,42.121,108.309,43.443z M118.887,189.57c-1.156-0.531-2.567-0.432-4.291,0.623c-9.145,5.599-9.331,8.958-10.078,15.864
		c-0.483,4.467,0.377,9.71-0.657,14.021c-0.158,1.366-0.416,2.309-0.743,2.923c1.718,1.561,3.232,1.48,3.743-2.923
		c1.034-4.312,0.174-9.555,0.657-14.021c0.747-6.906,0.933-10.266,10.078-15.864C118.05,189.916,118.476,189.722,118.887,189.57z
		 M43.494,108.483c-1.148-0.671-2.109-2.438-2.109-6.477c0-3.486,5.072-20.676-2.252-17.065c2.54,2.567-0.748,14.258-0.748,17.065
		C38.385,109.69,41.857,109.16,43.494,108.483z M202.455,51.292c-4.209-0.185-10.093-0.909-12.877-0.676
		C193.707,50.803,199.557,51.517,202.455,51.292z M242.102,127.054c0.073-0.019,0.145-0.061,0.217-0.088
		c-4.343-1.402-7.143-8.288-7.143-8.288s-5.895-15.199-2.172-43.427c2.571-19.499,8.397-23.898,11.755-24.756
		c-0.162-0.02-0.32-0.042-0.486-0.06c0,0-10.546-3.412-14.269,24.815s2.172,43.427,2.172,43.427S236.208,128.605,242.102,127.054z
		 M181.421,40.717c0,0,3.106-0.183,14.618-3.289c2.7-0.729,5.006-1.115,6.981-1.251c-2.504-0.208-5.774,0.116-9.981,1.251
		c-11.512,3.106-14.618,3.289-14.618,3.289s-0.185,0.045-0.481,0.095C179.618,41.164,181.421,40.717,181.421,40.717z M202.71,29.472
		c-1.795-0.271-3.974-0.981-6.488-2.276c-6.865-3.231-11.086-3.96-13.693-3.55c2.552,0.307,6.003,1.342,10.693,3.55
		C197.376,29.334,200.626,29.895,202.71,29.472z M188.954,79.588l0.143,0.599c0,0,7.857-0.914,7.126-4.568
		c-0.598-2.988-2.785-4.873-6.359-4.063c1.811,0.513,2.953,2.032,3.359,4.063C193.652,77.767,191.119,78.963,188.954,79.588z
		 M180.294,36.606c-0.643-0.042-1.065-0.092-1.065-0.092s-0.523,0.02-1.187,0.128C178.706,36.667,179.486,36.664,180.294,36.606z
		 M195.924,115.188c-1.332-0.742-3.012-0.455-4.867,1.329c-4.366,4.37-3.707,8.706-9.533,10.744
		c0.936,0.276,1.882,0.326,2.822,0.068c6.029-2.01,5.299-6.396,9.711-10.812C194.703,115.896,195.327,115.466,195.924,115.188z
		 M275.521,85.985c0.438-1.492,1.013-2.604,1.736-3.221c-2.295-1.425-3.811,0.073-4.736,3.221
		c-1.159,3.942-0.435,17.88-4.712,21.875c0.518,0.355,1.139,0.62,1.906,0.751C275.215,106.112,274.271,90.235,275.521,85.985z
		 M247.809,77.683c2.644-1.823,3.433-5.395,3.779-8.383c0.224-1.927,0.906-6.347-1.302-7.517c-0.264-0.14-0.569-0.209-0.923-0.195
		c-0.614,0.025-1.162,0.203-1.653,0.495c1.686,1.488,1.086,5.426,0.878,7.217c-0.343,2.952-1.124,6.469-3.693,8.311
		C245.548,78.403,246.547,78.552,247.809,77.683z M236.252,150.938c-2.12-1.189-4.017-1.406-5.687-1.037
		c0.853,0.18,1.747,0.51,2.687,1.037c1.818,1.363,3.56,1.528,5.049,1.058C237.635,151.791,236.95,151.461,236.252,150.938z
		 M238.762,174.354c0,0-1.137,0.5-3.396,0.669c0.068,0.005,0.125,0.016,0.197,0.02c4.133,0.229,6.198-0.688,6.198-0.688
		s1.495-1.092,3.247-1.608C242.428,171.688,238.762,174.354,238.762,174.354z M197.404,86.55c-0.065-0.011-0.13-0.023-0.195-0.032
		c-0.025,0.021-0.048,0.043-0.073,0.064C197.228,86.567,197.313,86.563,197.404,86.55z M279.458,114.278
		c-0.306-2.855,1.179-5.685,3.059-7.703c1.024-1.1,2.286-1.807,3.664-2.106c-2.524-0.523-4.93,0.243-6.664,2.106
		c-1.88,2.019-3.364,4.848-3.059,7.703c0.278,2.608,1.695,5.093,3.113,7.276c1.129,0.422,1.364,1.136,1.351,2
		c0.813,1.282,1.49,2.806,0.44,3.822c-0.048,0.046-0.104,0.085-0.157,0.127c0.116,0.134,0.253,0.256,0.434,0.351
		c0.828,0.435,2.067,0.155,2.724-0.479c1.558-1.508-0.684-4.133-1.536-5.428C281.328,119.674,279.753,117.043,279.458,114.278z
		 M277.379,122.021c-0.213-0.196-0.5-0.366-0.892-0.501c-1.257-0.434-3.923-0.2-5.492,10.472c-1.57,10.672,1.04,12.903,4.73,12.941
		c0,0,0.668,0.065,1.651-0.136c-2.938-0.608-4.752-3.492-3.382-12.806C274.915,125.74,276.21,123.073,277.379,122.021z
		 M287.833,115.435c0.427-1.092-0.146-2.637-1.335-2.495c-0.178,0.021-0.368,0.081-0.571,0.183
		c-0.516,0.262-0.829,0.627-1.009,1.051c0.089,0.412,0.069,0.866-0.085,1.261c-0.034,0.146-0.049,0.271-0.071,0.404
		c0.101,0.796,0.368,1.621,0.586,2.326c0.694,0.392,1.79,0.11,2.651-0.318C287.668,117.411,287.551,116.662,287.833,115.435z
		 M261.058,68.717c0,0-6.848,40.062-7.598,49.812s1,15.5,7.5,15.5c0.407,0,0.804-0.066,1.188-0.189
		c-5.003-1.027-6.363-6.544-5.688-15.311c0.75-9.75,7.598-49.812,7.598-49.812c0.346-1.727,0.935-3.05,1.736-3.754
		C263.378,63.378,261.745,65.28,261.058,68.717z M239.517,215.324c-0.216-0.384-0.427-0.731-0.576-1.009
		c-1.105-2.042-2.247-4.394-2.294-6.765c-0.047-2.449,1.421-4.74,3.167-6.313c0.751-0.678,1.61-1.132,2.524-1.374
		c-2.007-0.503-3.988-0.014-5.524,1.374c-1.746,1.573-3.214,3.864-3.167,6.313c0.041,2.083,0.928,4.151,1.892,6.008
		c0.227,0.015,0.43,0.072,0.597,0.146c1.357,0.605,1.147,1.576,0.921,2.698c0.365,0.867,0.537,1.766,0.018,2.405
		c0.097,0.167,0.232,0.315,0.421,0.438c0.671,0.43,1.743,0.283,2.349-0.208c0.25-0.203,0.399-0.445,0.48-0.71
		c-0.029-0.214-0.055-0.429-0.101-0.641C240.049,216.882,239.786,216.102,239.517,215.324z M237.313,157.179
		c-5.479-0.251-12.446,0.664-13.934,6.614c-2.524,10.102-1.377,13.545-1.377,13.545s0.874,8.276,7.712,6.792
		c-4.11-1.093-4.712-6.792-4.712-6.792s-1.147-3.443,1.377-13.545C227.604,158.893,232.547,157.41,237.313,157.179z M236.894,168.09
		l0.439-0.014c-0.342-0.057-0.572-0.073-0.572-0.073l-0.213,0.007C236.74,168.073,236.894,168.09,236.894,168.09z M242.725,206.938
		c-0.151,0.005-0.317,0.04-0.497,0.111c-1.878,0.759-1.057,3.208-0.78,4.663c0.69,0.109,1.581-0.164,2.196-0.485
		c-0.255-0.394-0.303-1.04,0.031-2.071C244.118,208.258,243.745,206.904,242.725,206.938z M241.28,163.818
		c0.511,0.013,1.023,0.034,1.538,0.071c0.799,0.057,1.688,0.093,2.533-0.021C243.988,163.793,242.638,163.802,241.28,163.818z
		 M238.181,172.139l-3.306-0.081c-0.156,0-0.309,0.026-0.458,0.063l2.17,0.054C236.587,172.174,237.351,172.269,238.181,172.139z
		 M236.481,186.373c0.525-0.094,1.011-0.158,1.473-0.207c-1.134-0.162-2.592-0.127-4.473,0.207
		c-6.428,1.147-9.871,6.657-9.871,6.657s-0.278,0.346-0.71,0.69c1.665,1.869,3.71-0.69,3.71-0.69S230.054,187.521,236.481,186.373z
		 M106.663,159.216c3.708,5.107,8.947,17.858,16.235,15.899c-5.753-1.534-10.057-11.521-13.235-15.899
		c-8.326-11.471-23.254-26.041-23.254-26.041s0.998,1.853,3.66,6.773C95.109,145.224,101.945,152.716,106.663,159.216z
		 M12.266,123.678c0.621-4.403,3.025-8.804,5.924-10.702c1.828-1.197,4.099-2.412,6.643-3.189c0.162-0.049,0.3-0.069,0.454-0.107
		c-0.849-0.31-1.96-0.35-3.454,0.107c-2.544,0.777-4.814,1.992-6.643,3.189c-2.899,1.898-5.304,6.299-5.924,10.702
		c-2.471,17.536-4.979,64.523,31.388,97.383c6.271,4.74,11.536,6.316,15.955,5.848c-3.755-0.373-8.045-2.136-12.955-5.848
		C7.287,188.201,9.795,141.214,12.266,123.678z M78.218,248.42c-10.451-13.437,1.493-26.874,1.493-26.874
		c2.14-2.896,4.006-5.14,5.633-6.856c1.846-1.947,3.494-2.985,4.962-3.408c-2.093-0.659-4.729-0.002-7.962,3.408
		c-1.627,1.717-3.493,3.96-5.633,6.856c0,0-11.943,13.438-1.493,26.874s22.955,15.676,27.62,15.116c0,0,0,0,0.001,0
		C96.995,263.014,86.9,259.582,78.218,248.42z M103.676,241.711c0.955,1.169,1.588,2.977,1.588,2.977s2.24,4.292,4.106,3.919
		c0.422-0.084,0.755-0.444,1.022-0.938c-1.177-1.167-2.128-2.981-2.128-2.981S106.06,238.396,103.676,241.711z M29.445,94.929
		c-1.352-0.427-2.656-1.273-3.461-2.05c-2.536-2.448-2.238-6.16-1.19-9.235c1.161-3.408,5.63-9.612,9.46-14.271
		c6.409-7.794,16.673-19.122,25.76-23.987c1.768-0.946,3.239-1.521,4.458-1.803c-1.462-0.528-3.854-0.127-7.458,1.803
		c-9.086,4.866-19.351,16.193-25.76,23.987c-3.831,4.659-8.299,10.863-9.46,14.271c-1.048,3.075-1.346,6.787,1.19,9.235
		C24.409,94.254,27.394,95.856,29.445,94.929z M120.395,236.663c0,0,0.374-4.666-2.239-4.853c-0.635,0.079-1.162,0.358-1.604,0.771
		c1.057,1.371,0.843,4.081,0.843,4.081s-0.933,31.726,15.49,35.458c1.643,0.422,3.04,0.476,4.24,0.259
		c-0.397-0.063-0.811-0.148-1.24-0.259C119.462,268.389,120.395,236.663,120.395,236.663z M110.709,35.053
		c4.042-1.576,5.927-3.435,6.703-5.142c1.294-2.846-2.729-5.867-4.373-7.054c-1.645-1.188-2.695-2.97-0.32-5.345
		c4.751-4.75,14.042-6.605,14.555-7.118c0.093-0.093,0.563-0.222,1.262-0.307c-2.194-0.25-4.065,0.111-4.262,0.307
		c-0.513,0.512-9.804,2.367-14.555,7.118c-2.375,2.375-1.324,4.157,0.32,5.345c1.644,1.188,5.667,4.208,4.373,7.054
		c-0.776,1.708-2.661,3.566-6.703,5.142c-3.511,1.369-6.271,2.262-8.284,2.631C101.067,38.31,104.855,37.335,110.709,35.053z
		 M161.794,50.949c3.099,0.255,6.841,0.36,10.843,0.323c-2.864-0.027-5.534-0.133-7.843-0.323
		c-13.339-1.097-17.59-9.589-18.61-13.985c-1.079-4.645-2.052-10.835-1.488-16.655c0.75-7.744,10.377-9.28,16.396-9.478
		c-4.954-0.166-18.5,0.232-19.396,9.478c-0.563,5.82,0.409,12.011,1.488,16.655C144.204,41.36,148.455,49.853,161.794,50.949z
		 M76.83,68.308c0.62,5.402,4.026,6.955,7.829,6.297c-2.463-0.501-4.379-2.385-4.829-6.297c-1.279-11.146-8.04-24.667-8.04-24.667
		c-2.698-6.047,4.02-12.06,14.069-17.724c2.275-1.282,4.435-1.979,6.375-2.221c-2.579-0.358-5.84,0.229-9.375,2.221
		C72.81,31.581,66.092,37.593,68.79,43.641C68.79,43.641,75.55,57.162,76.83,68.308z M260.96,158.279c0-5.5-7.25-1-10.043-4.711
		c-1.807-1.874-3.365-4.775-2.707-7.539c0.723-3.037,3.117-4.145,5.396-4.446c-2.313-0.291-6.308-0.088-7.912,3.139
		c0.133,1.036,0.109,1.937-0.03,2.542c-0.095,0.411-0.261,0.844-0.479,1.276c0.351,1.911,1.473,3.721,2.732,5.028
		c2.793,3.711,10.043-0.789,10.043,4.711s-2.5,13.75-6.75,23.75s-4.25,23.5,4,23.5c0.747,0.023,1.443-0.006,2.113-0.062
		c-7.354-0.948-7.204-13.813-3.113-23.438C258.46,172.029,260.96,163.779,260.96,158.279z M151.844,252.015
		c-0.072-9.186-0.909-29.515-3.228-29.201c-0.766,0.104-1.515,0.417-2.147,0.917c1.676,4.022,2.313,20.328,2.375,28.284
		c0.061,7.654,0.766,14.448,2.91,16.235c1.813,1.51,5.056,1.875,8,1.661c-1.96-0.159-3.796-0.658-5-1.661
		C152.609,266.463,151.904,259.669,151.844,252.015z M233.94,214.307c-0.168-0.227-0.42-0.43-0.806-0.602
		c-1.034-0.462-3.317-0.46-5.438,8.487c-2.125,8.947-0.074,11.037,3.058,11.341c0,0,0.925,0.174,2.2-0.133
		c-2.658-0.601-4.194-3.053-2.258-11.208C231.801,217.533,232.948,215.312,233.94,214.307z M274.96,168.529
		c-1.75-7.75-5.5-7.75-6.5-7c-0.062,0.046-0.118,0.125-0.17,0.23c1.32,0.828,2.763,2.754,3.67,6.77
		c1.139,5.041,3.545,4.793,5.089,4.004C276.227,171.967,275.467,170.775,274.96,168.529z M175.874,249.654
		c-3.215-17.447-23.646-68.184-23.646-68.184c-2.517-5.411-2.309-10.218,0.091-11.991c2.746-2.031,5.893-4.331,8.922-4.964
		c-3.866-0.949-8.251,2.248-11.922,4.964c-2.399,1.773-2.607,6.58-0.091,11.991c0,0,20.431,50.736,23.646,68.184
		c2.39,12.968,7.471,14.424,10.737,13.553C180.763,262.412,177.608,259.068,175.874,249.654z M213.983,228.533
		c1.378-19.973-2.066-63.592-2.066-63.592c-0.919-17.218,11.708-28.008,22.039-29.386c0.111-0.015,0.216-0.021,0.325-0.033
		c-1-0.127-2.103-0.13-3.325,0.033c-10.331,1.377-22.958,12.168-22.039,29.386c0,0,3.444,43.619,2.066,63.592
		s11.02,18.825,11.02,18.825s0.478,0.05,1.108-0.129C219.696,246.626,212.947,243.549,213.983,228.533z M196.995,249.425
		c-2.066-8.494-24.105-38.109-21.58-30.304c0.211,0.65,0.476,1.403,0.778,2.225c5.894,6.964,16.405,22.339,17.802,28.079
		c0.908,3.732,3.058,5.647,5.182,6.621c0.961,0.44,2.284,0.479,3.665,0.223c-0.234-0.059-0.46-0.129-0.665-0.223
		C200.053,255.072,197.903,253.157,196.995,249.425z M124.13,83.438c1.38,0.662,2.573,2.1,2.948,3.692
		c1.943,4.899,4.279,5.651,6.337,4.659c-1.156-0.621-2.303-2.05-3.337-4.659C129.437,84.406,126.405,82.12,124.13,83.438z
		 M144.982,165.266c-5.688-0.88-12.133-6.945-20.02-22.955c-12.242-24.85-6.944-29.234-3.655-30.148
		c0.115-0.032,0.218-0.047,0.329-0.074c-0.881-0.29-1.952-0.309-3.329,0.074c-3.289,0.914-8.587,5.298,3.655,30.148
		C131.268,161.199,138.566,166.251,144.982,165.266z M110.686,96.893c-4.808-5.592-5.796-13.736-4.767-20.742
		c0.979-6.664,5.139-11.924,11.552-14.418c1.985-0.655,3.811-1.009,5.503-1.145c-2.466-0.214-5.282,0.082-8.503,1.145
		c-6.413,2.494-10.572,7.754-11.552,14.418c-1.029,7.006-0.042,15.15,4.767,20.742c4.657,5.416,11.821,8.684,18.304,11.308
		c3.691,1.494,12.257,3.774,11.161,9.236c-0.393,1.955-2.064,3.977-4.024,4.711c0.583,0.245,1.23,0.358,1.965,0.27
		c2.383-0.287,4.6-2.688,5.06-4.981c1.096-5.462-7.47-7.742-11.161-9.236C122.507,105.576,115.343,102.309,110.686,96.893z
		 M89.484,79.209c-0.739-0.221-1.542-0.282-2.421-0.119c-7.857,1.462-12.608,6.944-5.665,17.358
		c9.066,11.845,16.139,31.635,18.604,39.071c2.377,1.877,3.948,2.954,3.948,2.954s-8.223-27.225-19.551-42.025
		C77.627,86.294,81.978,80.831,89.484,79.209z M162.343,129.887c0,0,1.865,19.555,14.549,17.897
		c-9.989-1.507-11.549-17.897-11.549-17.897s-14.617-46.411-20.83-58.288s1.644-13.155,4.567-13.886c0,0,3.652-1.264,10.094-1.452
		c-0.042-0.001-0.078-0.009-0.12-0.01c-8.223-0.183-12.974,1.462-12.974,1.462c-2.924,0.731-10.78,2.01-4.567,13.886
		S162.343,129.887,162.343,129.887z M42.128,168.379c4.283,0.789,9.205-1.957,11.756-7.613c4.203-9.318-10.415-20.83-15.896-28.87
		s0.183-12.791,0.183-12.791s2.924-2.558,9.501-7.126c0.631-0.438,1.225-0.744,1.784-0.94c-1.274-0.508-2.855-0.399-4.784,0.94
		c-6.578,4.568-9.501,7.126-9.501,7.126s-5.664,4.751-0.183,12.791s20.099,19.551,15.896,28.87
		C48.917,165.129,45.537,167.765,42.128,168.379z M172.758,62.463c0,0,8.039,33.255,9.318,44.401
		c0.501,5.756,3.829,5.77,5.877,5.208c-1.372-0.499-2.59-1.907-2.877-5.208c-1.279-11.146-9.318-44.401-9.318-44.401
		c-3.472-8.223,7.856-8.771,7.856-8.771c0.068-0.003,0.135-0.001,0.203-0.005c-1.04-0.044-2.104-0.052-3.203,0.005
		C180.614,53.692,169.286,54.24,172.758,62.463z M137.46,238.029c0,0-4-22.25-5.5-28.5s-6.25-27.25,1.25-31
		c1.217-0.608,2.434-1.149,3.688-1.41c-2.372-0.538-4.53,0.331-6.688,1.41c-7.5,3.75-2.75,24.75-1.25,31s5.5,28.5,5.5,28.5
		s0.25,4.75,5.75,3.75c0.103,0,0.192-0.011,0.29-0.015C137.628,241.057,137.46,238.029,137.46,238.029z M136.804,247.3
		c-1.744,0.582-2.832,1.957-3.517,3.419c1.241,5.314,1.852,4.793,1.852,4.793s0.185-6.216,4.196-8.012
		C138.607,247.24,137.773,247.138,136.804,247.3z M182.601,154.826c-0.815-0.415-1.754-0.487-2.839-0.067
		c-7.117,2.755-9.412,7.387-5.969,13.355c3.243,5.622,10.559,28.384,12.741,41.179c2.328,4.227,3.838,5.984,3.345,2.252
		c-1.606-12.167-9.643-37.462-13.086-43.431C173.377,162.192,175.615,157.589,182.601,154.826z M193.917,98.505
		c2.651,2.496,6.363,7.876,8.259,13.658c3.562,10.864,9.728,22.935,15.62,20.664c-4.904-1.777-9.661-11.638-12.62-20.664
		C201.925,102.248,193.334,93.503,193.917,98.505z M223.954,47.023c0.518,0,1.019-0.102,1.5-0.276
		c-2.787-1.004-4.859-4.73-4.859-9.186s2.072-8.181,4.859-9.185c-0.481-0.174-0.982-0.276-1.5-0.276
		c-3.512,0-6.359,4.236-6.359,9.461C217.595,42.787,220.442,47.023,223.954,47.023z M214.756,97.462
		c1.232,1.907,3.154,3.038,5.409,2.171c-0.952-0.41-1.773-1.187-2.409-2.171c-3.536-5.476-3.007-14.513-2.962-20.7
		c0.055-7.464-1.149-17.98,3.404-24.483c0.965-1.378,2.32-2.326,3.725-2.739c-0.494-0.163-1.014-0.244-1.547-0.233
		c-1.877,0.04-3.881,1.119-5.178,2.972c-4.554,6.503-3.35,17.019-3.404,24.483C211.749,82.949,211.22,91.986,214.756,97.462z
		 M96.551,194.562c-3.174-0.845-7.271-4.757-9.959-17.899c-6.396-33.803-25.763-66.692-25.763-66.692
		c-4.202-7.492-0.184-10.415,6.029-15.531c0.495-0.368,0.949-0.645,1.375-0.852c-1.104-0.746-2.461-0.57-4.375,0.852
		c-6.212,5.116-10.23,8.039-6.029,15.531c0,0,19.368,32.89,25.763,66.692C87.264,194.618,93.568,195.356,96.551,194.562z
		 M139.877,196.446c-0.117,0.059-0.225,0.131-0.326,0.212c3.822,1.908,7.996,9.387,5.326,10.455
		c-1.623,0.649-3.164,2.246-4.321,3.715c0.548,1.76,0.988,2.951,0.988,2.951s3-5.332,6.333-6.666S143.877,194.446,139.877,196.446z"
		/>
</g>
</svg>
