<?xml version="1.0" encoding="utf-8"?>
<!-- Generator: Adobe Illustrator 13.0.0, SVG Export Plug-In . SVG Version: 6.00 Build 14948)  -->
<!DOCTYPE svg [
	<!ENTITY ns_flows "http://ns.adobe.com/Flows/1.0/">
	<!ENTITY ns_extend "http://ns.adobe.com/Extensibility/1.0/">
	<!ENTITY ns_ai "http://ns.adobe.com/AdobeIllustrator/10.0/">
	<!ENTITY ns_graphs "http://ns.adobe.com/Graphs/1.0/">
]>
<svg version="1.2" baseProfile="tiny" id="Layer_1" xmlns:x="&ns_extend;" xmlns:i="&ns_ai;" xmlns:graph="&ns_graphs;"
	 xmlns="http://www.w3.org/2000/svg" xmlns:xlink="http://www.w3.org/1999/xlink" xmlns:a="http://ns.adobe.com/AdobeSVGViewerExtensions/3.0/"
	 x="0px" y="0px" width="200px" height="186.078px" viewBox="0 0 200 186.078" xml:space="preserve">
<g>
	<path fill="#1D1D1D" d="M90.709,186.078c-1.1,0-2.246-0.148-3.41-0.44c-5.502-1.28-9.029-5.063-11.284-9.536
		c-1.203,2.213-3.45,3.692-6.179,4.018c-0.539,0.065-1.115,0.098-1.713,0.098c-6.14,0-15.266-3.297-22.461-12.549
		c-3.144-4.042-4.258-8.203-4.213-12.047c-1.415,0.363-2.719,0.482-3.825,0.482c-0.001,0-0.003,0-0.004,0
		c-4.353,0-8.895-1.766-13.499-5.244l-0.23-0.175l-0.213-0.192C-2.451,126.88-0.958,93.708,0.898,80.542
		c0.688-4.876,3.298-9.337,6.816-11.641c1.559-1.021,3.157-1.842,4.77-2.449c-0.215-0.179-0.414-0.358-0.599-0.536
		c-3.283-3.167-4.174-7.887-2.445-12.951c1.255-3.688,5.158-8.76,7.376-11.455c7.095-8.63,13.469-14.492,18.945-17.424
		c1.763-0.945,3.388-1.566,4.913-1.875c1.795-3.753,5.798-7.391,11.985-10.879c2.761-1.556,5.683-2.379,8.446-2.379
		c2.034,0,3.936,0.441,5.582,1.256c0.422-1.063,1.117-2.21,2.24-3.332c3.494-3.496,8.622-5.109,11.086-5.885
		c0.113-0.035,0.217-0.068,0.311-0.097C81.372,0.388,82.844,0,84.984,0c3.605,0,6.806,1.208,9.074,3.412
		c2.715-1.676,6.655-2.881,12.371-2.881c1.48,0,2.521,0.088,2.784,0.112c11.548,0.89,20.46,3.142,26.503,6.694
		c3.991,2.236,5.908,4.755,6.773,6.969c1.768-1.506,3.949-2.384,6.336-2.384c6.042,0,10.775,5.63,10.775,12.816
		c0,0.682-0.043,1.349-0.125,1.999c0.724-0.137,1.408-0.19,2.025-0.19c0.706,0,1.315,0.074,1.813,0.171
		c6.041,0.748,9.894,3.745,11.689,9.117c0.104-0.005,0.207-0.006,0.31-0.006c5.276,0,8.228,4.919,9.198,6.536
		c1.25,2.085,1.908,4.165,2.165,6.128c2.192,1.107,3.612,2.91,4.212,3.67c2.765,3.511,2.516,7.457,1.637,10.579
		c3.484,1.229,5.293,3.481,6.207,5.208c2.139,4.041,0.982,8.163,0.729,8.949l-0.035,0.112l-0.041,0.11
		c-0.752,2.074-1.932,3.803-3.508,5.136c-0.014,0.011-0.028,0.023-0.044,0.036c0.54,2.993,0.044,5.755-0.304,7.683
		c-0.947,5.289-3.477,8.554-6.363,10.334c0.158,0.199,0.315,0.402,0.472,0.607l0.167,0.222l0.15,0.235
		c5,7.858,1.858,14.004-0.711,16.396c-0.695,0.662-2.474,2.13-4.959,2.598c0.732,4.637,0.876,11.376-2.914,16.3
		c-1.861,2.416-5.371,5.296-11.534,5.296c-0.188,0-0.383-0.003-0.577-0.008c-0.313-0.004-0.625-0.021-0.931-0.052
		c-0.601,0.818-1.294,1.537-2.082,2.15c0.122,2.549-0.492,4.815-0.892,6.293c-1.55,5.714-5.031,8.602-8.502,9.635
		c-0.139,2.044-0.695,4.01-1.903,5.717c-1.688,2.39-4.414,3.815-7.292,3.815c-0.027,0-0.055,0-0.083,0
		c-0.083,0.001-0.175,0.003-0.274,0.003c-0.547,0-1.373-0.043-2.355-0.234c-0.059,0.107-0.119,0.215-0.18,0.32
		c-2.339,4.041-7.295,5.881-10.909,5.881c-1.262,0-2.445-0.208-3.531-0.618c-0.57,1.016-1.25,1.806-1.872,2.394
		c-1.881,1.768-4.572,2.824-7.203,2.824c-1.187,0-2.668-0.195-4.208-0.877c-1.413,2.061-3.404,3.612-5.772,4.359
		c-1.704,0.539-3.738,0.836-5.724,0.836c-2.666,0-5.017-0.545-6.912-1.587C96.555,184.926,93.768,186.078,90.709,186.078
		L90.709,186.078z M27.766,101.489c0.234,0.738,0.491,1.484,0.769,2.236c0.063-0.094,0.122-0.197,0.183-0.312
		C28.62,102.923,28.264,102.249,27.766,101.489L27.766,101.489z"/>
	<path fill="#FFFFFF" d="M21.467,61.908c1.291-1.764,1.008-4.313,3.016-5.604c5.743-3.692,2.117,8.493,2.117,10.884
		c0,6.619,3.916,3.982,3.916,3.982s2.691-2.651,10.214-10.173c7.521-7.521,0.962-12.396-2.167-14.321s-2.165-6.859,2.167-8.785
		c4.333-1.926,7.702-13.118-1.859-7.998c-5.985,3.205-12.746,10.666-16.968,15.8c-2.521,3.069-5.466,7.155-6.231,9.399
		c-0.688,2.025-0.886,4.471,0.785,6.083C17.592,62.271,20.234,63.593,21.467,61.908z M51.922,44.991
		c0.624,5.444,5.542,4.977,9.125,2.39c1.889-1.362,4.343-1.822,6.203-3.238c2.66-2.022,1.385-5.419,0.076-7.937
		c-1.565-3.009-0.963-6.138,2.888-7.462c3.852-1.324,4.333,2.407,4.333,2.407s-0.24,9.868,6.8,6.8
		c7.04-3.069,8.726-3.671,8.726-3.671s5.574-1.687,2.045-7.942c-3.006-5.333-1.523-8.459-1.203-13.6
		c0.456-7.316-7.406-6.229-7.743-5.893c-0.339,0.338-6.458,1.56-9.587,4.688c-1.564,1.564-0.873,2.737,0.211,3.521
		c1.083,0.782,3.731,2.771,2.88,4.646c-0.511,1.125-1.751,2.349-4.414,3.387c-7.102,2.768-9.628,2.647-7.102-1.686
		c2.527-4.332-2.647-8.063-9.266-4.332c-6.62,3.73-11.044,7.69-9.267,11.674C46.627,28.744,51.079,37.65,51.922,44.991z
		 M107.883,33.559c4.331,0.355,10.562,0.273,16.313-0.22c2.492-0.213,8.807,0.755,10.926,0.391c2.917-0.502,4.773-2.939,4.413-6.911
		c-0.481-2.286-3.489-4.212-11.071-2.166c-7.584,2.046-9.629,2.166-9.629,2.166s-2.888,0.723-3.852-0.963
		c-0.962-1.685,2.407-1.805,2.407-1.805s5.777,0.723,5.897-1.806c0.119-2.527-3.73-2.407-3.73-2.407s-3.009,0.241-2.769-1.443
		c0.241-1.686,1.564-5.296,11.794-0.482c8.184,4.213,11.072-0.842,3.871-4.851c-4.121-2.446-11.313-4.903-23.849-5.859
		c0,0-13.238-1.287-13.96,6.175c-0.371,3.833,0.27,7.91,0.98,10.97C96.299,27.242,99.098,32.836,107.883,33.559z M49.051,106.489
		c-1.678-5.892-12.293-29.363-12.293-29.363s-1.685-6.379-6.017-3.37c-4.333,3.009-6.259,4.693-6.259,4.693s-3.73,3.129-0.12,8.425
		c3.61,5.295,13.238,12.879,10.47,19.016c-2.768,6.138-9.775,7.086-12.154,0.963c-6.55-16.855-3.01-31.051-3.01-31.051
		s0.362-4.814-3.971-3.49c-1.675,0.512-3.171,1.313-4.375,2.101c-1.909,1.25-3.492,4.149-3.902,7.049
		c-1.627,11.551-3.279,42.499,20.674,64.143c13.714,10.367,20.175-2.134,22.912-11.25C52.817,124.684,51.465,114.961,49.051,106.489
		z M39.407,72.432c0,0,12.756,21.663,16.969,43.928c3.25,15.885,9.628,11.313,9.628,11.313s9.628-4.212,1.203-19.737
		C58.784,92.41,56.254,87.717,56.254,87.717s9.834,9.597,15.316,17.151c2.887,3.977,7.18,14.987,13.447,8.723
		c2.177-2.174,1.1-6.604,0.232-9.083c-1.396-3.991-4.063-7.423-6.416-10.884c-4.799-7.057-7.887-15.046-10.684-23.069
		c-1.049-3.008-2.045-6.033-2.99-9.074c0,0-1.324-10.35-6.498-9.387c-5.176,0.963-8.305,4.573-3.73,11.434
		c7.461,9.748,12.876,27.68,12.876,27.68s-10.711-7.342-15.405-16.006c-4.692-8.666-4.332-16.488-9.025-12.998
		C39.286,65.572,36.639,67.498,39.407,72.432z M88.321,80.631c-1.752,0.211-2.781-1.276-3.587-2.598
		c-1.469-2.409-2.091-5.102-5.492-4.156c-2.165,0.602-5.656,3.489,2.407,19.856c8.064,16.368,13.84,16.97,19.015,13.48
		c0,0,10.952-6.018,3.25-22.987c-2.167-4.773-4.585-9.901-8.799-13.217c-3.207-2.525-7.013-4.151-10.149-6.8
		c-2.228-1.881-6.766-4.623-4.82-8.212c0.185-0.338,0.395-0.604,0.621-0.803c1.519-1.34,3.798,0.262,4.253,2.193
		c2.77,6.98,6.751,1.192,7.457-1.405c0.492-1.813,0.677-4.241-0.115-7.26c0,0-3.61-12.034-15.646-8.063
		c-4.224,1.643-6.964,5.107-7.608,9.496c-0.678,4.615-0.027,9.979,3.14,13.662c3.067,3.568,7.786,5.72,12.056,7.448
		c2.432,0.984,8.073,2.486,7.352,6.083C91.35,78.86,89.89,80.442,88.321,80.631z M189.96,68.834
		c-1.718-0.407-3.362,0.099-4.538,1.362c-1.238,1.329-2.216,3.192-2.015,5.073c0.194,1.821,1.232,3.555,2.219,5.053
		c0.562,0.853,2.037,2.582,1.012,3.574c-0.432,0.418-1.248,0.602-1.794,0.315c-0.608-0.319-0.609-1.024-0.577-1.625
		c0.063-1.098,0.459-2.098-0.84-2.547c-0.828-0.286-2.584-0.132-3.618,6.897s0.685,8.499,3.116,8.524c0,0,4.84,0.492,6.122-6.65
		c0.362-2.009,0.719-4.188,0.102-6.182c-0.47-1.519-1.329-2.881-1.75-4.423c-0.3-1.096-1.148-2.978,0.27-3.698
		c0.134-0.067,0.259-0.106,0.376-0.12c0.783-0.094,1.16,0.924,0.879,1.643c-0.656,2.85,1.9,1.875,2.699,1.198
		c0.561-0.473,1.155-1.21,1.57-2.353C193.192,74.877,194.694,70.222,189.96,68.834z M161.25,131.726
		c-1.427-0.473-2.862-0.166-3.954,0.821c-1.151,1.035-2.117,2.544-2.086,4.157c0.029,1.563,0.782,3.11,1.51,4.456
		c0.414,0.767,1.539,2.344,0.596,3.11c-0.4,0.324-1.105,0.421-1.549,0.137c-0.492-0.317-0.441-0.917-0.369-1.425
		c0.137-0.927,0.545-1.747-0.525-2.225c-0.681-0.304-2.185-0.303-3.582,5.591c-1.399,5.894-0.048,7.27,2.015,7.469
		c0,0,4.074,0.778,5.691-5.192c0.457-1.68,0.922-3.504,0.544-5.244c-0.285-1.324-0.915-2.545-1.158-3.887
		c-0.172-0.95-0.754-2.611,0.504-3.121c0.118-0.047,0.228-0.068,0.326-0.072c0.672-0.022,0.918,0.87,0.627,1.461
		c-0.769,2.371,1.474,1.732,2.204,1.216c0.509-0.359,1.069-0.941,1.507-1.881C163.55,137.097,165.169,133.254,161.25,131.726z
		 M94.526,47.159c4.092,7.822,13.719,38.392,13.719,38.392s1.563,16.488,13.238,10.591c4.377-2.212,6.504-4.118,7.592-5.898
		c5.994-7.16,2.965-18.192-1.918-13.499c-2.906,2.909-2.426,5.797-6.396,7.121c-6.137,1.686-12.636-15.766-9.146-15.404
		c4.092,1.203,1.924-5.416,1.563-8.304c-0.36-2.889-2.406-2.769-4.453-0.963c-2.046,1.805-2.165-0.963-2.165-0.963l-2.046-6.86
		c0,0-0.723-3.129,3.61-3.249c4.332-0.12,3.971-5.897,3.971-5.897s-0.601-5.055-6.018-5.175c-5.415-0.12-8.543,0.963-8.543,0.963
		C95.608,38.494,90.433,39.337,94.526,47.159z M145.071,87.355c3.972-2.046,6.619-7.221,4.092-13.479
		c-2.527-6.259-6.139-3.37-6.258,2.045c-0.361,5.055-5.296-3.73-5.776-10.229c0,0-0.603-9.869-7.944-8.666
		c12.276-10.229,5.175-22.385-8.904-21.662c0,0-7.462,0.36-5.176,5.776c0,0,5.296,21.903,6.138,29.245
		c0.481,5.535,4.935,3.008,4.935,3.008s3.611-0.48,1.324-6.859s4.573,0,6.979,7.342C136.888,81.218,141.101,89.401,145.071,87.355z
		 M123.891,52.815l-1.203-5.055c3.37-1.685,5.414-0.361,5.896,2.046C129.065,52.214,123.891,52.815,123.891,52.815z M142.767,64.193
		c0.861,1.334,2.232,2.11,3.836,1.327c2.418-1.179,1.977-5.527,2.041-7.739c0.118-4.139,0.473-8.264,0.747-12.395
		c0.218-3.261,1.007-7.407,0.034-10.611c-0.495-1.624-1.682-2.326-2.956-2.299c-1.237,0.026-2.556,0.737-3.41,1.957
		c-3,4.283-2.207,11.21-2.242,16.126C140.786,54.635,140.438,60.588,142.767,64.193z M148.825,30.972
		c2.313,0,4.189-2.79,4.189-6.231s-1.877-6.231-4.189-6.231c-2.313,0-4.188,2.79-4.188,6.231S146.512,30.972,148.825,30.972z
		 M133.327,102.716c1.938,0,3.508-2.336,3.508-5.219s-1.57-5.22-3.508-5.22s-3.51,2.337-3.51,5.22S131.39,102.716,133.327,102.716z
		 M154.241,78.168c0,0,2.654,6.538,6.537,5.517c3.882-1.021,6.742-19.614,6.742-19.614s2.656-17.775,1.839-23.495
		c-0.817-5.721-3.27-6.946-7.151-7.355c0,0-6.946-2.247-9.398,16.345C150.358,68.157,154.241,78.168,154.241,78.168z
		 M163.585,40.565c0.232-0.01,0.435,0.036,0.607,0.128c1.455,0.771,1.006,3.682,0.858,4.951c-0.229,1.969-0.749,4.321-2.489,5.521
		c-1.315,0.906-2.199,0.135-2.428-1.343C159.802,47.667,160.206,40.705,163.585,40.565z M173.199,88.279
		c4.281,0,6.751-11.033,6.751-11.033s2.8-8.397,4.94-13.008s1.927-6.597,0.825-7.996c-2.549-3.235-4.079-2.406-4.902,0.393
		c-0.822,2.799-0.201,13.256-3.824,14.902c-6.751-1.152,2.059-16.569,2.059-16.569s2.779-4.272-0.186-9.213
		c-2.964-4.939-4.94-3.787-5.598-0.494c0,0-4.511,26.388-5.006,32.81C167.766,84.492,168.918,88.279,173.199,88.279z
		 M91.424,162.885c-2.949,0.984-3.073,5.409-3.073,5.409s-1.722,1.476-5.285-32.696c0,0-0.246-14.013-6.27-10.325
		c-6.022,3.688-6.145,5.899-6.637,10.448c-0.319,2.943,0.247,6.396-0.434,9.236c-0.796,6.865-5.297-2.205-6.512-3.873
		c-1.508-2.068-4.009-3.528-7.66,0.322c-1.071,1.131-2.301,2.609-3.711,4.517c0,0-7.866,8.851-0.981,17.7
		c6.883,8.851,15.118,10.324,18.191,9.956c3.072-0.368-0.246-4.301-0.246-4.301s-3.934-3.812-1.598-9.343
		c1.721-3.688,3.441,1.229,3.441,1.229s1.475,2.827,2.704,2.581s1.352-3.934,1.352-3.934s-0.492-6.761,2.458-7.129
		c1.722,0.122,1.476,3.196,1.476,3.196s-0.614,20.896,10.203,23.354c9.095,2.336,7.129-12.046,7.129-12.046
		S95.112,162.271,91.424,162.885z M87.082,117.59c-4.94,2.47-1.812,16.302-0.824,20.418c0.988,4.117,3.624,18.771,3.624,18.771
		s0.164,3.129,3.786,2.471c5.27,0,1.152-8.398,1.152-8.398c-0.563-2.44,0.882-3.889,2.409-4.094
		c1.527-0.207,2.078,13.184,2.125,19.232c0.04,5.042,0.505,9.518,1.917,10.694c1.825,1.521,5.856,1.285,8.013,0.604
		c2.387-0.754,3.465-3.408,3.478-5.746c0.05-8.812-2.477-14.823-4.934-23.162C96.96,114.297,92.022,115.12,87.082,117.59z
		 M96.742,136.416c-2.195,0.88-4.172,4.391-4.172,4.391s-3.731-10.099-1.098-11.416C94.108,128.073,98.937,135.537,96.742,136.416z
		 M125.011,112.118c0,0-0.605-12-5.293-10.185c-4.688,1.813-6.199,4.864-3.931,8.796c2.268,3.932,7.561,20.592,8.618,28.606
		c0.572,4.328-2.944-2.548-6.298-9.789c-1.49-3.215-2.808-6.521-4.034-9.845c-1.142-3.102-1.926-6.448-3.802-9.219
		c-2.996-4.426-7.253-1.334-10.604,1.146c-1.581,1.168-1.718,4.335-0.06,7.898c0,0,13.457,33.418,15.574,44.908
		c2.117,11.492,7.447,9.262,8.751,8.033c1.305-1.229,1.91-3.725-0.889-8.789c0,0-6.502-14.213-8.165-19.354
		c-1.664-5.141,12.853,14.364,14.214,19.96c0.599,2.458,2.014,3.72,3.412,4.36c1.785,0.819,5.46-0.44,6.559-2.339
		c0.925-1.598,1.27-3.781-0.596-6.407C138.468,159.899,131.664,150.524,125.011,112.118z M130.453,120.737
		c0.888,6.345,1.516,12.843,2.828,17.036c1.597,5.103,5.942,7.912,3.879-16.583c-0.204-3.832-0.386-7.664-0.521-11.502
		c-0.065-1.816-1.148-4.496-3.463-4.458C127.739,105.336,129.98,118.003,130.453,120.737z M157.066,129.712
		c1.663,0.151,2.57-1.361,3.327-3.478c0,0,1.512-4.688-5.293-3.478c-4.233,0.755-6.502,4.384-6.502,4.384s-3.135,3.925-3.732-4.571
		c-0.072-1.019-1.016-13.444,0.557-17.559c0,0,3.327-9.072,9.526-5.594c3.024,2.267,5.745-0.455,6.199-2.421
		c0.454-1.965-0.906-8.619-7.711-7.712s-15.122,8.016-14.517,19.355c0,0,2.27,28.73,1.361,41.885
		c-0.907,13.155,7.258,12.399,7.258,12.399s5.444,0.604,1.059-11.794C144.214,138.73,150.262,129.562,157.066,129.712z
		 M164.828,105.554c-0.445-0.918-1.728-1.262-2.645-1.422c0,0-12.074-2.901-13.737,3.752c-1.662,6.652-0.906,8.921-0.906,8.921
		s0.604,5.747,5.443,4.386c4.84-1.361,8.619-2.269,8.619-2.269s3.629-0.907,2.269-3.931c-1.362-3.025-5.293-0.151-5.293-0.151
		s-1.36,0.604-4.082,0.453c-2.723-0.151-1.663-1.966-0.453-1.966l3.103,0.076c0,0,2.232,0.285,2.404-1.145
		c0.172-1.431-2.289-1.603-2.289-1.603l-1.889,0.058c0,0-1.203-0.115-0.572-1.316c0.63-1.202,1.201-1.488,2.346-1.488
		c1.378,0,2.729-0.061,4.104,0.037c1.176,0.085,2.657,0.131,3.419-0.953C164.964,106.578,165.056,106.021,164.828,105.554z
		 M169.083,93.384c-1.317-0.329-5.435-0.659-6.258,2.8c-0.434,1.82,0.593,3.731,1.783,4.965c1.84,2.445,6.615-0.52,6.615,3.103
		c0,3.624-1.646,9.058-4.446,15.644c-2.8,6.587-2.8,15.479,2.634,15.479c10.375,0.33,9.222-11.361,7.74-16.96
		c-1.482-5.6-1.646-11.526-0.988-12.021c0.658-0.493,3.129-0.493,4.281,4.611c1.153,5.105,4.281,1.977,4.281,1.977
		s3.129-2.635-0.33-8.069C176.492,94.536,169.083,93.384,169.083,93.384z"/>
	<path fill="#CCCCCC" d="M132.997,92.49c-0.313-0.137-0.645-0.213-0.988-0.213c-1.938,0-3.508,2.337-3.508,5.22
		s1.57,5.219,3.508,5.219c0.344,0,0.675-0.076,0.988-0.213c-1.457-0.636-2.521-2.635-2.521-5.006
		C130.477,95.125,131.54,93.126,132.997,92.49z M131.112,120.737c-0.443-2.557-2.428-13.781,1.754-15.327
		c-0.307-0.117-0.64-0.187-1.006-0.18c-5.438,0.105-3.197,12.772-2.724,15.507c0.887,6.345,1.516,12.843,2.827,17.036
		c0.805,2.568,2.305,4.555,3.333,2.77c-0.521-0.635-1.005-1.646-1.356-2.77C132.628,133.58,132,127.082,131.112,120.737z
		 M141.587,75.922c-0.012,0.178-0.031,0.333-0.055,0.477c1.021,1.352,1.889,1.533,2.031-0.477c0.057-2.557,0.893-4.549,2.025-5.282
		C143.582,69.42,141.675,72.011,141.587,75.922z M109.385,59.194c0.52-0.459,1.039-0.808,1.531-1.026
		c-0.863-0.594-2.174-0.143-3.487,1.01C107.676,59.764,108.215,60.226,109.385,59.194z M71.338,28.614
		c1.63,0.562,1.892,2.537,1.892,2.537s-0.203,8.472,5.374,7.267c-3.549-0.95-3.397-7.267-3.397-7.267S74.756,27.743,71.338,28.614z
		 M78.305,124.862c-0.762-0.351-1.691-0.284-2.825,0.41c-6.023,3.688-6.146,5.899-6.638,10.448
		c-0.318,2.943,0.248,6.396-0.433,9.236c-0.104,0.899-0.274,1.521-0.489,1.924c1.131,1.029,2.129,0.976,2.465-1.924
		c0.681-2.84,0.114-6.293,0.434-9.236c0.49-4.549,0.613-6.761,6.638-10.448C77.754,125.09,78.035,124.962,78.305,124.862z
		 M28.648,71.453c-0.757-0.442-1.39-1.605-1.39-4.266c0-2.297,3.342-13.619-1.482-11.24c1.672,1.691-0.494,9.391-0.494,11.24
		C25.282,72.248,27.57,71.898,28.648,71.453z M133.348,33.783c-2.772-0.121-6.647-0.599-8.481-0.445
		C127.586,33.462,131.438,33.932,133.348,33.783z M159.461,83.685c0.048-0.013,0.095-0.04,0.144-0.058
		c-2.861-0.924-4.705-5.459-4.705-5.459s-3.883-10.011-1.431-28.604c1.694-12.842,5.531-15.74,7.742-16.305
		c-0.106-0.014-0.211-0.028-0.32-0.04c0,0-6.946-2.247-9.398,16.345c-2.452,18.593,1.431,28.604,1.431,28.604
		S155.579,84.706,159.461,83.685z M119.494,26.818c0,0,2.045-0.12,9.627-2.166c1.778-0.48,3.298-0.734,4.599-0.824
		c-1.649-0.137-3.803,0.076-6.574,0.824c-7.581,2.046-9.628,2.166-9.628,2.166s-0.121,0.029-0.316,0.063
		C118.307,27.113,119.494,26.818,119.494,26.818z M133.516,19.412c-1.183-0.18-2.617-0.646-4.273-1.5
		c-4.522-2.127-7.302-2.607-9.02-2.338c1.681,0.202,3.954,0.885,7.043,2.338C130.003,19.321,132.144,19.69,133.516,19.412z
		 M124.454,52.422l0.096,0.394c0,0,5.174-0.602,4.692-3.009c-0.394-1.969-1.835-3.21-4.188-2.676
		c1.192,0.338,1.945,1.338,2.213,2.676C127.55,51.222,125.882,52.01,124.454,52.422z M118.752,24.111
		c-0.424-0.027-0.702-0.061-0.702-0.061s-0.345,0.013-0.781,0.084C117.706,24.15,118.219,24.148,118.752,24.111z M129.046,75.869
		c-0.878-0.488-1.983-0.299-3.206,0.875c-2.876,2.879-2.441,5.734-6.278,7.076c0.616,0.183,1.239,0.215,1.857,0.045
		c3.972-1.324,3.491-4.212,6.397-7.121C128.242,76.335,128.652,76.053,129.046,75.869z M181.473,56.635
		c0.289-0.982,0.667-1.715,1.144-2.121c-1.512-0.939-2.51,0.048-3.12,2.121c-0.763,2.597-0.286,11.776-3.103,14.408
		c0.341,0.233,0.75,0.408,1.255,0.494C181.271,69.891,180.649,59.434,181.473,56.635z M163.22,51.166
		c1.741-1.2,2.261-3.553,2.49-5.521c0.146-1.27,0.596-4.181-0.858-4.951c-0.173-0.092-0.375-0.138-0.608-0.128
		c-0.403,0.017-0.766,0.134-1.088,0.326c1.11,0.979,0.715,3.573,0.578,4.753c-0.226,1.944-0.741,4.261-2.433,5.475
		C161.73,51.641,162.39,51.738,163.22,51.166z M155.608,99.417c-1.397-0.784-2.646-0.928-3.746-0.684
		c0.563,0.118,1.15,0.336,1.77,0.684c1.197,0.896,2.345,1.006,3.325,0.696C156.519,99.978,156.067,99.761,155.608,99.417z
		 M157.262,114.84c0,0-0.75,0.329-2.237,0.44c0.045,0.002,0.082,0.01,0.131,0.013c2.721,0.151,4.082-0.453,4.082-0.453
		s0.984-0.72,2.139-1.06C159.676,113.083,157.262,114.84,157.262,114.84z M130.021,57.006c-0.043-0.006-0.086-0.015-0.129-0.021
		c-0.017,0.015-0.031,0.028-0.048,0.042C129.905,57.018,129.961,57.015,130.021,57.006z M184.066,75.27
		c-0.202-1.881,0.776-3.744,2.015-5.073c0.674-0.725,1.505-1.19,2.412-1.388c-1.662-0.345-3.246,0.16-4.389,1.388
		c-1.238,1.329-2.217,3.192-2.015,5.073c0.184,1.719,1.117,3.355,2.051,4.793c0.743,0.278,0.898,0.748,0.89,1.316
		c0.536,0.845,0.981,1.849,0.29,2.518c-0.031,0.03-0.067,0.057-0.104,0.084c0.077,0.088,0.167,0.169,0.287,0.231
		c0.545,0.286,1.36,0.103,1.793-0.315c1.025-0.992-0.449-2.722-1.012-3.574C185.298,78.824,184.261,77.091,184.066,75.27z
		 M182.696,80.37c-0.141-0.13-0.329-0.241-0.587-0.33c-0.828-0.286-2.583-0.132-3.617,6.897c-1.035,7.029,0.685,8.499,3.116,8.524
		c0,0,0.438,0.043,1.087-0.09c-1.935-0.4-3.13-2.3-2.228-8.435C181.074,82.819,181.927,81.063,182.696,80.37z M189.582,76.031
		c0.281-0.719-0.097-1.736-0.879-1.643c-0.117,0.014-0.242,0.053-0.376,0.12c-0.34,0.173-0.547,0.413-0.666,0.692
		c0.059,0.271,0.047,0.57-0.055,0.83c-0.023,0.097-0.032,0.179-0.048,0.267c0.066,0.524,0.243,1.067,0.387,1.532
		c0.457,0.258,1.179,0.072,1.746-0.21C189.474,77.333,189.396,76.84,189.582,76.031z M171.946,45.261c0,0-4.51,26.388-5.004,32.81
		s0.658,10.209,4.939,10.209c0.268,0,0.529-0.044,0.783-0.125c-3.295-0.676-4.191-4.311-3.747-10.084
		c0.493-6.422,5.004-32.81,5.004-32.81c0.228-1.137,0.616-2.009,1.145-2.473C173.476,41.744,172.399,42.997,171.946,45.261z
		 M157.758,141.824c-0.142-0.253-0.281-0.482-0.379-0.664c-0.728-1.346-1.48-2.894-1.511-4.456
		c-0.031-1.613,0.936-3.122,2.086-4.157c0.494-0.447,1.061-0.746,1.662-0.905c-1.322-0.332-2.627-0.009-3.639,0.905
		c-1.149,1.035-2.117,2.544-2.086,4.157c0.027,1.372,0.611,2.734,1.246,3.957c0.148,0.011,0.283,0.048,0.394,0.097
		c0.894,0.399,0.755,1.039,0.606,1.777c0.24,0.571,0.354,1.162,0.011,1.584c0.063,0.111,0.153,0.209,0.277,0.288
		c0.442,0.284,1.148,0.188,1.547-0.137c0.165-0.134,0.263-0.293,0.316-0.468c-0.019-0.141-0.035-0.282-0.065-0.422
		C158.109,142.85,157.937,142.337,157.758,141.824z M156.308,103.527c-3.608-0.165-8.198,0.438-9.178,4.356
		c-1.662,6.652-0.907,8.921-0.907,8.921s0.575,5.452,5.079,4.474c-2.707-0.72-3.103-4.474-3.103-4.474s-0.757-2.269,0.906-8.921
		C149.913,104.656,153.168,103.68,156.308,103.527z M156.03,110.714l0.29-0.01c-0.226-0.036-0.378-0.048-0.378-0.048l-0.139,0.005
		C155.93,110.703,156.03,110.714,156.03,110.714z M159.871,136.301c-0.099,0.004-0.208,0.025-0.327,0.072
		c-1.236,0.501-0.696,2.113-0.514,3.072c0.454,0.072,1.041-0.108,1.446-0.319c-0.168-0.259-0.199-0.685,0.021-1.364
		C160.789,137.171,160.543,136.278,159.871,136.301z M158.921,107.899c0.336,0.01,0.673,0.023,1.013,0.047
		c0.526,0.038,1.112,0.062,1.668-0.013C160.703,107.884,159.813,107.89,158.921,107.899z M156.879,113.38l-2.179-0.053
		c-0.103,0-0.203,0.018-0.301,0.041l1.429,0.035C155.828,113.403,156.332,113.466,156.879,113.38z M155.759,122.757
		c0.347-0.063,0.666-0.104,0.971-0.137c-0.748-0.107-1.707-0.084-2.947,0.137c-4.232,0.755-6.501,4.384-6.501,4.384
		s-0.184,0.228-0.468,0.454c1.097,1.232,2.444-0.454,2.444-0.454S151.526,123.512,155.759,122.757z M70.253,104.868
		c2.444,3.365,5.894,11.764,10.694,10.473c-3.789-1.01-6.625-7.588-8.718-10.473c-5.483-7.555-15.316-17.151-15.316-17.151
		s0.657,1.22,2.41,4.461C62.644,95.652,67.147,100.587,70.253,104.868z M8.079,81.461c0.409-2.899,1.994-5.799,3.902-7.049
		c1.205-0.788,2.701-1.589,4.375-2.101c0.107-0.032,0.198-0.046,0.3-0.07c-0.56-0.204-1.292-0.23-2.276,0.07
		c-1.674,0.512-3.17,1.313-4.375,2.101c-1.908,1.25-3.492,4.149-3.9,7.049c-1.628,11.551-3.28,42.499,20.673,64.143
		c4.13,3.123,7.599,4.16,10.509,3.852c-2.474-0.246-5.299-1.407-8.532-3.852C4.8,123.96,6.452,93.012,8.079,81.461z M51.519,163.623
		c-6.883-8.85,0.983-17.7,0.983-17.7c1.41-1.907,2.639-3.386,3.711-4.517c1.215-1.283,2.301-1.967,3.268-2.245
		c-1.379-0.434-3.115-0.001-5.244,2.245c-1.072,1.131-2.301,2.609-3.71,4.517c0,0-7.867,8.851-0.983,17.7
		c6.883,8.851,15.119,10.324,18.191,9.956c0,0,0,0,0.002,0C63.886,173.235,57.238,170.975,51.519,163.623z M68.288,159.204
		c0.629,0.77,1.045,1.961,1.045,1.961s1.476,2.827,2.705,2.581c0.278-0.055,0.497-0.293,0.673-0.617
		c-0.774-0.769-1.401-1.964-1.401-1.964S69.858,157.021,68.288,159.204z M19.395,62.525c-0.891-0.281-1.75-0.838-2.279-1.351
		c-1.672-1.612-1.475-4.058-0.785-6.083c0.766-2.244,3.708-6.33,6.231-9.399c4.22-5.134,10.981-12.595,16.966-15.8
		c1.166-0.623,2.135-1.001,2.937-1.188c-0.964-0.348-2.538-0.083-4.911,1.188c-5.984,3.205-12.746,10.666-16.968,15.8
		c-2.522,3.069-5.466,7.155-6.23,9.399c-0.69,2.025-0.887,4.471,0.784,6.083C16.078,62.081,18.043,63.136,19.395,62.525z
		 M79.299,155.88c0,0,0.246-3.074-1.476-3.196c-0.418,0.052-0.766,0.235-1.056,0.508c0.696,0.903,0.555,2.688,0.555,2.688
		s-0.613,20.896,10.203,23.354c1.082,0.277,2.002,0.313,2.793,0.17c-0.262-0.041-0.534-0.098-0.816-0.17
		C78.684,176.775,79.299,155.88,79.299,155.88z M72.918,23.088c2.664-1.038,3.904-2.262,4.416-3.387
		c0.853-1.875-1.797-3.864-2.881-4.646c-1.083-0.783-1.774-1.956-0.211-3.521c3.129-3.129,9.249-4.351,9.588-4.688
		c0.06-0.061,0.371-0.146,0.83-0.201c-1.445-0.165-2.678,0.072-2.807,0.201c-0.338,0.338-6.459,1.56-9.586,4.688
		c-1.565,1.564-0.873,2.737,0.211,3.521c1.082,0.782,3.731,2.771,2.88,4.646c-0.512,1.125-1.753,2.349-4.415,3.387
		c-2.313,0.901-4.131,1.49-5.457,1.732C66.569,25.233,69.063,24.591,72.918,23.088z M106.566,33.559
		c2.041,0.167,4.506,0.236,7.141,0.213c-1.885-0.019-3.645-0.088-5.165-0.213c-8.785-0.723-11.585-6.316-12.257-9.212
		c-0.711-3.06-1.352-7.137-0.98-10.97c0.495-5.102,6.834-6.113,10.799-6.243c-3.264-0.109-12.185,0.153-12.775,6.243
		c-0.371,3.833,0.27,7.91,0.98,10.97C94.981,27.242,97.781,32.836,106.566,33.559z M50.605,44.991
		c0.407,3.558,2.651,4.581,5.156,4.147c-1.622-0.33-2.884-1.57-3.181-4.147c-0.843-7.341-5.296-16.247-5.296-16.247
		c-1.776-3.983,2.648-7.943,9.267-11.674c1.499-0.845,2.922-1.303,4.199-1.463c-1.697-0.236-3.846,0.15-6.174,1.463
		c-6.619,3.73-11.045,7.69-9.268,11.674C45.309,28.744,49.762,37.65,50.605,44.991z M171.882,104.251
		c0-3.622-4.775-0.657-6.615-3.103c-1.189-1.233-2.216-3.145-1.782-4.965c0.476-2,2.054-2.73,3.555-2.93
		c-1.523-0.191-4.155-0.058-5.212,2.067c0.088,0.684,0.072,1.276-0.02,1.675c-0.063,0.271-0.172,0.556-0.316,0.841
		c0.231,1.26,0.97,2.451,1.801,3.312c1.838,2.445,6.614-0.52,6.614,3.103c0,3.624-1.647,9.058-4.446,15.644
		c-2.799,6.587-2.799,15.479,2.635,15.479c0.492,0.016,0.951-0.004,1.393-0.04c-4.844-0.625-4.745-9.098-2.051-15.438
		C170.235,113.309,171.882,107.875,171.882,104.251z M100.012,165.99c-0.047-6.049-0.599-19.439-2.125-19.232
		c-0.505,0.067-0.997,0.274-1.415,0.604c1.104,2.648,1.523,13.39,1.565,18.629c0.039,5.042,0.504,9.518,1.916,10.694
		c1.194,0.995,3.33,1.234,5.269,1.094c-1.291-0.104-2.5-0.434-3.294-1.094C100.518,175.508,100.053,171.032,100.012,165.99z
		 M154.086,141.154c-0.11-0.149-0.277-0.283-0.531-0.396c-0.681-0.304-2.185-0.303-3.581,5.591c-1.399,5.894-0.049,7.27,2.014,7.469
		c0,0,0.609,0.114,1.449-0.087c-1.75-0.396-2.762-2.011-1.487-7.382C152.676,143.279,153.433,141.816,154.086,141.154z
		 M181.103,111.003c-1.152-5.104-3.622-5.104-4.281-4.611c-0.04,0.031-0.078,0.084-0.111,0.152c0.869,0.546,1.82,1.814,2.418,4.459
		c0.75,3.32,2.334,3.157,3.352,2.638C181.938,113.267,181.438,112.483,181.103,111.003z M115.84,164.436
		c-2.117-11.49-15.574-44.908-15.574-44.908c-1.657-3.563-1.521-6.73,0.061-7.898c1.808-1.337,3.88-2.853,5.875-3.27
		c-2.547-0.625-5.434,1.48-7.852,3.27c-1.58,1.168-1.718,4.335-0.061,7.898c0,0,13.457,33.418,15.574,44.908
		c1.574,8.542,4.921,9.5,7.073,8.928C119.061,172.84,116.982,170.637,115.84,164.436z M140.94,150.524
		c0.907-13.154-1.361-41.885-1.361-41.885c-0.605-11.34,7.713-18.448,14.518-19.355c0.072-0.009,0.142-0.014,0.213-0.021
		c-0.658-0.084-1.384-0.086-2.189,0.021c-6.805,0.907-15.121,8.016-14.516,19.355c0,0,2.268,28.73,1.36,41.885
		c-0.907,13.155,7.258,12.399,7.258,12.399s0.315,0.033,0.73-0.084C144.703,162.441,140.258,160.415,140.94,150.524z
		 M129.751,164.285c-1.36-5.596-15.877-25.101-14.213-19.96c0.14,0.429,0.313,0.925,0.513,1.465
		c3.882,4.587,10.805,14.714,11.724,18.495c0.6,2.458,2.015,3.72,3.414,4.36c0.633,0.29,1.504,0.315,2.414,0.147
		c-0.154-0.039-0.303-0.085-0.438-0.147C131.766,168.005,130.349,166.743,129.751,164.285z M81.758,54.957
		c0.909,0.436,1.695,1.383,1.943,2.432c1.279,3.227,2.817,3.723,4.173,3.068c-0.762-0.408-1.517-1.351-2.198-3.068
		C85.254,55.594,83.257,54.089,81.758,54.957z M95.495,108.854c-3.748-0.581-7.992-4.576-13.187-15.121
		c-8.063-16.367-4.574-19.255-2.407-19.856c0.075-0.021,0.143-0.031,0.216-0.049c-0.579-0.191-1.285-0.203-2.192,0.049
		c-2.166,0.602-5.655,3.489,2.407,19.856C86.46,106.176,91.268,109.503,95.495,108.854z M72.905,63.818
		c-3.167-3.683-3.818-9.047-3.14-13.662c0.645-4.389,3.384-7.854,7.608-9.496c1.309-0.432,2.51-0.664,3.625-0.754
		c-1.624-0.141-3.479,0.054-5.602,0.754c-4.223,1.643-6.964,5.107-7.608,9.496c-0.677,4.615-0.027,9.979,3.14,13.662
		c3.067,3.568,7.786,5.72,12.056,7.448c2.433,0.984,8.074,2.486,7.352,6.083c-0.258,1.288-1.359,2.619-2.649,3.104
		c0.383,0.161,0.81,0.236,1.293,0.178c1.57-0.188,3.029-1.771,3.333-3.281c0.722-3.597-4.921-5.099-7.352-6.083
		C80.69,69.538,75.971,67.387,72.905,63.818z M58.94,52.172c-0.487-0.146-1.016-0.186-1.596-0.078
		c-5.176,0.963-8.303,4.573-3.73,11.434c5.972,7.801,10.631,20.836,12.253,25.733c1.566,1.237,2.601,1.946,2.601,1.946
		s-5.416-17.932-12.878-27.68C51.129,56.838,53.996,53.239,58.94,52.172z M106.928,85.551c0,0,1.229,12.88,9.583,11.789
		c-6.579-0.993-7.606-11.789-7.606-11.789s-9.627-30.569-13.72-38.392c-4.092-7.822,1.082-8.665,3.008-9.146
		c0,0,2.406-0.832,6.648-0.956c-0.027-0.001-0.051-0.006-0.079-0.007c-5.415-0.12-8.543,0.963-8.543,0.963
		c-1.926,0.481-7.101,1.324-3.01,9.146C97.3,54.981,106.928,85.551,106.928,85.551z M27.749,110.903
		c2.821,0.52,6.063-1.289,7.743-5.014c2.769-6.137-6.859-13.721-10.47-19.016c-3.611-5.296,0.119-8.425,0.119-8.425
		s1.926-1.685,6.258-4.693c0.417-0.289,0.808-0.49,1.176-0.619c-0.84-0.335-1.88-0.263-3.15,0.619
		c-4.332,3.009-6.258,4.693-6.258,4.693s-3.73,3.129-0.121,8.425c3.61,5.295,13.239,12.879,10.471,19.016
		C32.219,108.763,29.993,110.5,27.749,110.903z M113.788,41.142c0,0,5.294,21.903,6.137,29.245c0.331,3.791,2.521,3.8,3.871,3.43
		c-0.904-0.328-1.706-1.256-1.895-3.43c-0.843-7.342-6.138-29.245-6.138-29.245c-2.287-5.416,5.174-5.776,5.174-5.776
		c0.046-0.003,0.09-0.002,0.134-0.004c-0.685-0.029-1.385-0.033-2.108,0.004C118.963,35.365,111.502,35.726,113.788,41.142z
		 M90.539,156.779c0,0-2.634-14.654-3.622-18.771c-0.988-4.116-4.116-17.948,0.824-20.418c0.801-0.401,1.603-0.758,2.428-0.929
		c-1.563-0.355-2.982,0.218-4.404,0.929c-4.94,2.47-1.812,16.302-0.823,20.418c0.987,4.117,3.622,18.771,3.622,18.771
		s0.164,3.129,3.787,2.471c0.067,0,0.127-0.008,0.191-0.011C90.649,158.773,90.539,156.779,90.539,156.779z M90.106,162.885
		c-1.148,0.385-1.864,1.289-2.314,2.253c0.816,3.5,1.219,3.156,1.219,3.156s0.122-4.094,2.764-5.277
		C91.295,162.846,90.746,162.778,90.106,162.885z M120.271,101.978c-0.538-0.273-1.156-0.321-1.87-0.044
		c-4.688,1.813-6.2,4.864-3.933,8.796c2.137,3.703,6.954,18.695,8.392,27.123c1.534,2.784,2.529,3.941,2.203,1.483
		c-1.057-8.015-6.35-24.675-8.618-28.606C114.195,106.829,115.67,103.797,120.271,101.978z M127.724,64.881
		c1.746,1.644,4.191,5.188,5.44,8.996c2.345,7.155,6.406,15.105,10.288,13.609c-3.23-1.17-6.363-7.665-8.313-13.609
		C132.999,67.346,127.34,61.586,127.724,64.881z M147.508,30.972c0.341,0,0.671-0.067,0.988-0.182c-1.836-0.661-3.2-3.115-3.2-6.05
		s1.364-5.389,3.2-6.05c-0.317-0.114-0.647-0.182-0.988-0.182c-2.313,0-4.188,2.79-4.188,6.231S145.195,30.972,147.508,30.972z
		 M141.449,64.193c0.813,1.257,2.078,2.001,3.563,1.43c-0.626-0.27-1.168-0.781-1.586-1.43c-2.329-3.605-1.98-9.559-1.952-13.634
		c0.037-4.916-0.756-11.843,2.244-16.126c0.635-0.907,1.527-1.531,2.453-1.804c-0.326-0.107-0.668-0.161-1.02-0.153
		c-1.236,0.026-2.557,0.737-3.41,1.957c-2.999,4.283-2.206,11.21-2.242,16.126C139.469,54.635,139.12,60.588,141.449,64.193z
		 M63.594,128.149c-2.091-0.557-4.79-3.133-6.56-11.79c-4.214-22.265-16.97-43.928-16.97-43.928
		c-2.768-4.934-0.12-6.859,3.971-10.229c0.326-0.242,0.625-0.425,0.905-0.562c-0.727-0.491-1.621-0.376-2.88,0.562
		c-4.093,3.369-6.738,5.295-3.972,10.229c0,0,12.757,21.663,16.969,43.928C57.477,128.187,61.629,128.673,63.594,128.149z
		 M92.131,129.391c-0.077,0.039-0.148,0.086-0.215,0.14c2.517,1.258,5.267,6.183,3.508,6.886c-1.069,0.429-2.084,1.479-2.847,2.447
		c0.36,1.158,0.651,1.943,0.651,1.943s1.977-3.511,4.172-4.391C99.596,135.537,94.765,128.073,92.131,129.391z"/>
</g>
</svg>
